<svg width="70" height="75" viewBox="0 0 70 75" fill="none" xmlns="http://www.w3.org/2000/svg">
<g clip-path="url(#clip0_155_231)">
<path fill-rule="evenodd" clip-rule="evenodd" d="M20.8262 64.4226C15.264 62.0555 9.32665 60.456 3.56138 58.9484C2.31906 58.6281 1.03341 59.3521 0.783487 60.5741C0.443249 61.7854 1.19947 63.0314 2.35159 63.3401C7.94012 64.7963 13.7019 66.3265 19.0016 68.5981C20.1302 69.088 21.4835 68.5554 21.9993 67.4044C22.5149 66.2543 21.9547 64.9135 20.8262 64.4226Z" fill="#0AC4FF"/>
<path fill-rule="evenodd" clip-rule="evenodd" d="M41.2941 43.7238C33.2321 33.0415 23.8398 23.4276 15.9911 12.5142C15.2971 11.5 13.8604 11.2645 12.8486 11.9965C11.8368 12.7292 11.562 14.1461 12.3461 15.172C20.1912 26.1132 29.58 35.7543 37.6384 46.4647C38.4255 47.4688 39.8664 47.6682 40.8813 46.9119C41.8059 46.1449 42.081 44.7281 41.2941 43.7238Z" fill="#0AC4FF"/>
<path fill-rule="evenodd" clip-rule="evenodd" d="M63.4225 9.51484C62.9906 14.9756 62.5581 20.4362 62.1261 25.8978C61.9652 27.1406 62.9237 28.2404 64.1942 28.3434C65.4647 28.4456 66.503 27.5044 66.6641 26.2607C67.0972 20.7909 67.5306 15.3222 67.9637 9.85338C68.0343 8.5989 67.0754 7.50548 65.8041 7.40965C64.6227 7.32546 63.4931 8.26126 63.4225 9.51484Z" fill="#0AC4FF"/>
</g>
<defs>
<clipPath id="clip0_155_231">
<rect width="61" height="67" fill="white" transform="translate(8.60254) rotate(7.37733)"/>
</clipPath>
</defs>
</svg>
