<svg width="61" height="60" viewBox="0 0 61 60" fill="none" xmlns="http://www.w3.org/2000/svg">
<rect x="0.5" width="60" height="60" rx="30" fill="#111827"/>
<path d="M36.0828 31.1722L29.3278 24.4172C29.1689 24.2583 29.0563 24.0861 28.9901 23.9007C28.9238 23.7152 28.8907 23.5166 28.8907 23.3046C28.8907 23.0927 28.9238 22.894 28.9901 22.7086C29.0563 22.5232 29.1689 22.351 29.3278 22.1921L36.0828 15.4371C36.2417 15.2781 36.4139 15.1656 36.5993 15.0993C36.7848 15.0331 36.9834 15 37.1954 15C37.4073 15 37.606 15.0331 37.7914 15.0993C37.9768 15.1656 38.149 15.2781 38.3079 15.4371L45.0629 22.1921C45.2219 22.351 45.3344 22.5232 45.4007 22.7086C45.4669 22.894 45.5 23.0927 45.5 23.3046C45.5 23.5166 45.4669 23.7152 45.4007 23.9007C45.3344 24.0861 45.2219 24.2583 45.0629 24.4172L38.3079 31.1722C38.149 31.3311 37.9768 31.4437 37.7914 31.5099C37.606 31.5762 37.4073 31.6093 37.1954 31.6093C36.9834 31.6093 36.7848 31.5762 36.5993 31.5099C36.4139 31.4437 36.2417 31.3311 36.0828 31.1722ZM15.5 27.5166V17.9801C15.5 17.5298 15.6523 17.1523 15.957 16.8477C16.2616 16.543 16.6391 16.3907 17.0894 16.3907H26.6258C27.0762 16.3907 27.4536 16.543 27.7583 16.8477C28.0629 17.1523 28.2152 17.5298 28.2152 17.9801V27.5166C28.2152 27.9669 28.0629 28.3444 27.7583 28.649C27.4536 28.9536 27.0762 29.106 26.6258 29.106H17.0894C16.6391 29.106 16.2616 28.9536 15.957 28.649C15.6523 28.3444 15.5 27.9669 15.5 27.5166ZM31.394 43.4106V33.8742C31.394 33.4238 31.5464 33.0464 31.851 32.7417C32.1556 32.4371 32.5331 32.2848 32.9834 32.2848H42.5199C42.9702 32.2848 43.3477 32.4371 43.6523 32.7417C43.957 33.0464 44.1093 33.4238 44.1093 33.8742V43.4106C44.1093 43.8609 43.957 44.2384 43.6523 44.543C43.3477 44.8477 42.9702 45 42.5199 45H32.9834C32.5331 45 32.1556 44.8477 31.851 44.543C31.5464 44.2384 31.394 43.8609 31.394 43.4106ZM15.5 43.4106V33.8742C15.5 33.4238 15.6523 33.0464 15.957 32.7417C16.2616 32.4371 16.6391 32.2848 17.0894 32.2848H26.6258C27.0762 32.2848 27.4536 32.4371 27.7583 32.7417C28.0629 33.0464 28.2152 33.4238 28.2152 33.8742V43.4106C28.2152 43.8609 28.0629 44.2384 27.7583 44.543C27.4536 44.8477 27.0762 45 26.6258 45H17.0894C16.6391 45 16.2616 44.8477 15.957 44.543C15.6523 44.2384 15.5 43.8609 15.5 43.4106Z" fill="white"/>
</svg>
